HIERARCHY
ROOT Hips
{
	OFFSET 0.000000 0.000000 0.000000
	CHANNELS 6 Xposition Yposition Zposition Xrotation Yrotation Zrotation
	JOINT LeftUpLeg_virtual
	{
		OFFSET 0.000000 0.000000 0.000000
		CHANNELS 3 Xrotation Yrotation Zrotation
		JOINT LeftUpLeg
		{
			OFFSET 11.394100 -6.187798 -0.413800
			CHANNELS 3 Xrotation Yrotation Zrotation
			JOINT LeftLeg
			{
				OFFSET 0.430247 -32.302673 3.732800
				CHANNELS 3 Xrotation Yrotation Zrotation
				JOINT LeftFoot
				{
					OFFSET -0.430247 -48.264931 -6.423300
					CHANNELS 3 Xrotation Yrotation Zrotation
					JOINT LeftToeBase
					{
						OFFSET 4.230900 -16.068199 23.438400
						CHANNELS 3 Xrotation Yrotation Zrotation
						JOINT LeftToe_End
						{
							OFFSET 4.510700 0.695400 19.974600
							CHANNELS 3 Xrotation Yrotation Zrotation
							End Site
							{
								OFFSET 0 0 0
							}
						}
					}
				}
			}
		}
	}
	JOINT RightUpLeg_virtual
	{
		OFFSET 0.000000 0.000000 0.000000
		CHANNELS 3 Xrotation Yrotation Zrotation
		JOINT RightUpLeg
		{
			OFFSET -11.333700 -6.187798 -0.413800
			CHANNELS 3 Xrotation Yrotation Zrotation
			JOINT RightLeg
			{
				OFFSET -0.430392 -32.302628 3.733000
				CHANNELS 3 Xrotation Yrotation Zrotation
				JOINT RightFoot
				{
					OFFSET 0.430392 -48.264973 -6.423500
					CHANNELS 3 Xrotation Yrotation Zrotation
					JOINT RightToeBase
					{
						OFFSET -4.230900 -16.068199 23.438400
						CHANNELS 3 Xrotation Yrotation Zrotation
						JOINT RightToe_End
						{
							OFFSET -4.510700 0.695400 19.974600
							CHANNELS 3 Xrotation Yrotation Zrotation
							End Site
							{
								OFFSET 0 0 0
							}
						}
					}
				}
			}
		}
	}
	JOINT Spine_virtual
	{
		OFFSET 0.000000 0.000000 0.000000
		CHANNELS 3 Xrotation Yrotation Zrotation
		JOINT Spine
		{
			OFFSET -0.002400 12.777504 0.315300
			CHANNELS 3 Xrotation Yrotation Zrotation
			JOINT Spine1
			{
				OFFSET -0.002067 5.816869 0.032633
				CHANNELS 3 Xrotation Yrotation Zrotation
				JOINT Spine1_split
				{
					OFFSET -0.002067 5.816869 0.032633
					CHANNELS 3 Xrotation Yrotation Zrotation
					JOINT Spine2
					{
						OFFSET -0.002067 5.816869 0.032633
						CHANNELS 3 Xrotation Yrotation Zrotation
						JOINT Neck_virtual
						{
							OFFSET 0.000000 0.000000 0.000000
							CHANNELS 3 Xrotation Yrotation Zrotation
							JOINT Neck
							{
								OFFSET -0.003700 21.199493 -0.826900
								CHANNELS 3 Xrotation Yrotation Zrotation
								JOINT Head
								{
									OFFSET 0.000000 20.442200 4.834800
									CHANNELS 3 Xrotation Yrotation Zrotation
									JOINT HeadTop_End
									{
										OFFSET 0.000000 34.668396 4.968400
										CHANNELS 3 Xrotation Yrotation Zrotation
										End Site
										{
											OFFSET 0 0 0
										}
									}
								}
							}
						}
						JOINT LeftShoulder_virtual
						{
							OFFSET 0.000000 0.000000 0.000000
							CHANNELS 3 Xrotation Yrotation Zrotation
							JOINT LeftShoulder
							{
								OFFSET 3.288150 8.794197 -1.372250
								CHANNELS 3 Xrotation Yrotation Zrotation
								JOINT LeftShoulder_split
								{
									OFFSET 3.288150 8.794197 -1.372250
									CHANNELS 3 Xrotation Yrotation Zrotation
									JOINT LeftArm
									{
										OFFSET 11.953299 -2.279007 -0.146200
										CHANNELS 3 Xrotation Yrotation Zrotation
										JOINT LeftForeArm
										{
											OFFSET 18.448900 0.000000 0.000000
											CHANNELS 3 Xrotation Yrotation Zrotation
											JOINT LeftHand
											{
												OFFSET 29.527798 0.000000 0.000000
												CHANNELS 3 Xrotation Yrotation Zrotation
												End Site
												{
													OFFSET 0 0 0
												}
											}
										}
									}
								}
							}
						}
						JOINT RightShoulder_virtual
						{
							OFFSET 0.000000 0.000000 0.000000
							CHANNELS 3 Xrotation Yrotation Zrotation
							JOINT RightShoulder
							{
								OFFSET -3.249400 8.794197 -1.372250
								CHANNELS 3 Xrotation Yrotation Zrotation
								JOINT RightShoulder_split
								{
									OFFSET -3.249400 8.794197 -1.372250
									CHANNELS 3 Xrotation Yrotation Zrotation
									JOINT RightArm
									{
										OFFSET -11.953299 -2.279007 -0.146200
										CHANNELS 3 Xrotation Yrotation Zrotation
										JOINT RightForeArm
										{
											OFFSET -18.448900 0.000000 0.000000
											CHANNELS 3 Xrotation Yrotation Zrotation
											JOINT RightHand
											{
												OFFSET -29.527802 0.000000 0.000000
												CHANNELS 3 Xrotation Yrotation Zrotation
												End Site
												{
													OFFSET 0 0 0
												}
											}
										}
									}
								}
							}
						}
					}
				}
			}
		}
	}
}
MOTION
Frames: 7
Frame Time: 0.03333333
4.993505 82.025444 -1.690208 0.000000 0.000000 0.000000 3.873138 6.492741 -3.146065 11.912570 20.283287 14.796082 38.575512 8.293347 -3.437496 -21.571756 11.065143 -10.278799 -29.689623 -2.687565 1.842293 0.000000 0.000000 0.000000 3.263347 5.307443 -3.347315 -65.292599 12.893433 -0.738347 62.082096 -6.219565 2.245264 2.790505 -3.832549 13.101495 2.280982 8.512836 -17.934455 0.000000 0.000000 0.000000 3.686036 8.826545 -1.692216 1.540827 -3.812565 -0.447826 5.590513 -5.014610 2.483638 -0.097642 -0.344327 -0.321139 0.000000 0.000000 0.000000 5.005079 -3.221152 3.513910 -3.471456 7.682031 -6.316535 -16.186983 -25.553570 -27.108690 0.000000 0.000000 0.000000 5.530811 -5.086027 1.861978 0.475538 4.154088 2.924665 -1.046689 0.854112 2.570880 -15.491494 6.452863 -59.777194 133.426079 -73.587406 126.740253 0.000000 0.000000 0.000000 6.022258 -4.294173 3.415890 -2.766986 -5.552853 12.507360 -0.471164 4.563138 2.085419 -9.871063 -7.917642 61.955642 -175.672752 56.371132 -176.416300 0.000000 0.000000 0.000000 
4.591144 83.832726 -1.733900 0.000000 0.000000 0.000000 4.057444 7.296674 -3.011082 9.216320 17.256394 15.987873 40.523437 9.162018 -4.089281 -13.048847 11.230973 -8.325305 -27.004623 -2.010648 0.292533 0.000000 0.000000 0.000000 3.106253 6.520776 -3.181701 -62.532711 12.325857 -1.703540 58.256097 -6.675048 2.225522 4.066570 -3.752061 14.260696 -0.859341 9.111577 -17.278191 0.000000 0.000000 0.000000 3.425437 9.494145 -2.072233 1.178604 -3.727796 0.358403 5.599500 -4.952583 2.467609 -0.249761 0.092096 -0.202148 0.000000 0.000000 0.000000 4.780693 -3.214671 3.298380 -3.393009 7.653142 -6.227755 -15.595938 -25.412050 -27.027895 0.000000 0.000000 0.000000 5.755462 -5.015282 1.917582 0.538203 2.445875 3.550992 0.521966 -1.556601 3.092900 -20.166246 4.693920 -59.604465 136.172115 -73.050260 129.811242 0.000000 0.000000 0.000000 6.357141 -4.195679 3.165683 -2.964532 -5.091950 11.338494 -1.546279 5.166603 0.368089 -13.595635 -6.387553 62.846305 -176.123313 52.345689 -177.022999 0.000000 0.000000 0.000000 
4.136902 86.681435 -1.551468 0.000000 0.000000 0.000000 3.801869 9.554959 -2.985230 3.226774 13.754935 16.953312 42.752302 10.555527 -4.327826 0.132828 10.518968 -6.943759 -25.251524 -0.500964 -4.545790 0.000000 0.000000 0.000000 3.263757 8.791183 -3.211506 -57.211123 11.521429 -2.314562 50.639460 -8.167596 2.074472 5.113676 -5.063564 12.912712 -1.345242 9.235196 -14.357754 0.000000 0.000000 0.000000 3.201730 11.145894 -2.558513 0.713648 -3.567924 1.715168 5.731095 -4.953228 2.136780 -0.149572 0.481835 -0.015072 0.000000 0.000000 0.000000 4.719399 -3.144443 2.742156 -2.770843 7.510601 -5.713025 -14.055603 -25.167389 -25.917262 0.000000 0.000000 0.000000 6.161065 -4.872882 1.769265 0.654098 0.041790 3.555348 2.289273 -2.791111 2.319729 -27.608881 0.746601 -58.231748 140.416614 -73.469510 134.531846 0.000000 0.000000 0.000000 6.903590 -4.113988 2.617802 -3.112466 -5.020813 9.008547 -1.605930 3.421230 -0.309744 -20.948228 -1.814677 63.007443 -175.515918 51.659145 -178.817153 0.000000 0.000000 0.000000 
4.096774 89.776237 -1.440777 0.000000 0.000000 0.000000 3.262359 12.034537 -3.079627 -5.642721 10.495664 17.479082 46.006283 11.524738 -4.123699 15.545053 8.246783 -7.219217 -29.819879 1.653033 -9.821756 0.000000 0.000000 0.000000 3.265678 11.226066 -3.354746 -50.992481 10.321142 -2.464366 42.170886 -10.050264 1.804360 6.801962 -7.210118 10.085024 -0.766823 9.164593 -10.394015 0.000000 0.000000 0.000000 2.995165 13.432381 -2.838402 0.240684 -3.374537 3.241630 6.042453 -5.005963 1.652022 0.039766 0.710472 0.120037 0.000000 0.000000 0.000000 4.955916 -3.007696 2.082674 -1.788137 7.366809 -4.769775 -12.004434 -24.492812 -24.263219 0.000000 0.000000 0.000000 6.694654 -4.694758 1.570375 0.707705 -2.628982 3.120061 3.507699 -2.422052 1.147103 -36.798385 -4.684149 -56.507292 143.088884 -75.316578 137.776267 0.000000 0.000000 0.000000 7.584461 -4.079383 1.987871 -3.280264 -5.308175 5.866916 -0.874325 0.919667 -0.089719 -30.598278 4.480929 63.370721 -173.556159 54.731675 178.177082 0.000000 0.000000 0.000000 
4.263772 92.412323 -1.034119 0.000000 0.000000 0.000000 2.291170 14.071333 -2.880780 -16.896331 7.355639 17.185202 51.810164 11.368483 -3.326289 29.785540 4.155775 -8.513539 -39.269582 4.256932 -13.042716 0.000000 0.000000 0.000000 2.795836 13.480195 -3.357235 -46.043091 8.628046 -2.233381 36.074563 -11.105468 1.551437 9.394933 -8.871576 8.080425 -2.173817 9.270799 -6.888037 0.000000 0.000000 0.000000 2.639479 16.108446 -2.627895 -0.032877 -3.161870 4.460346 6.575181 -5.058607 1.219019 0.185713 0.648682 0.139878 0.000000 0.000000 0.000000 5.569744 -2.840220 1.596387 -0.763120 7.253028 -3.435172 -10.061138 -23.075249 -22.734114 0.000000 0.000000 0.000000 7.278611 -4.518368 1.474939 0.651982 -5.096145 2.799467 4.045045 -1.085637 0.050549 -46.920309 -11.008346 -55.205933 140.685095 -78.944542 136.075660 0.000000 0.000000 0.000000 8.196473 -4.100343 1.516543 -3.580661 -5.840834 2.228514 -0.439730 -1.120373 0.265825 -41.412844 10.736637 64.363284 -168.528880 61.627048 172.492124 0.000000 0.000000 0.000000 
4.497204 94.049286 -0.058071 0.000000 0.000000 0.000000 0.779978 15.845595 -2.246107 -30.131168 4.997819 15.703505 61.498675 11.156151 -2.750466 38.562773 0.334819 -8.561471 -44.074876 6.185722 -15.254201 0.000000 0.000000 0.000000 1.561210 15.233154 -2.932745 -43.092715 6.616344 -1.781944 34.104320 -10.601820 1.436690 11.582368 -9.171598 7.533197 -5.519174 9.427790 -4.779587 0.000000 0.000000 0.000000 1.662575 18.463033 -2.007497 0.154874 -2.916584 5.006383 7.223751 -5.046933 0.986997 0.210800 0.380321 0.057182 0.000000 0.000000 0.000000 6.495666 -2.664044 1.455279 -0.000409 7.181127 -1.807440 -8.671581 -20.879374 -21.829805 0.000000 0.000000 0.000000 7.871046 -4.326767 1.614059 0.524274 -6.856294 3.065783 4.296204 0.226259 -0.568619 -56.795584 -16.897861 -54.939190 121.277085 -83.604138 117.483284 0.000000 0.000000 0.000000 8.664362 -4.162565 1.358593 -4.081461 -6.498467 -1.737213 -0.591288 -2.467151 0.379021 -52.099074 15.308867 65.857989 -154.682912 71.108020 158.663396 0.000000 0.000000 0.000000 
4.850707 94.370750 0.744951 0.000000 0.000000 0.000000 -1.095866 17.313100 -1.146448 -43.462495 3.912317 13.255857 72.932234 11.541801 -2.624274 40.157588 -1.437119 -7.036321 -41.245118 6.236539 -16.135502 0.000000 0.000000 0.000000 -0.429233 16.266382 -1.813854 -41.773218 4.474378 -1.508372 36.258537 -8.502791 1.437374 11.471471 -7.953021 7.608552 -7.501424 9.490655 -4.430596 0.000000 0.000000 0.000000 -0.143042 19.835102 -1.129505 0.958146 -2.541795 4.756549 7.915067 -4.892856 1.047864 0.078564 0.173126 -0.068396 0.000000 0.000000 0.000000 7.555811 -2.462740 1.673597 0.437263 7.154557 -0.042872 -7.691322 -18.171331 -21.643652 0.000000 0.000000 0.000000 8.442358 -4.080933 1.987727 0.528128 -7.631157 4.359974 3.967542 0.817597 -0.669478 -66.070776 -21.338430 -55.736314 53.203448 -84.620942 50.319476 0.000000 0.000000 0.000000 8.931328 -4.202741 1.459297 -4.813186 -7.123767 -6.017300 -0.991674 -2.857302 -0.101826 -61.908664 17.151363 67.168367 -112.214127 78.139188 116.896283 0.000000 0.000000 0.000000 
